<?xml version="1.0" encoding="UTF-8" standalone="no"?><!DOCTYPE svg PUBLIC "-//W3C//DTD SVG 1.1//EN" "http://www.w3.org/Graphics/SVG/1.1/DTD/svg11.dtd"><svg width="100%" height="100%" viewBox="0 0 574 534" version="1.1" xmlns="http://www.w3.org/2000/svg" xmlns:xlink="http://www.w3.org/1999/xlink" xml:space="preserve" xmlns:serif="http://www.serif.com/" style="fill-rule:evenodd;clip-rule:evenodd;stroke-linejoin:round;stroke-miterlimit:2;"><path d="M399.906,200l148.094,-0c13.991,-0 25.333,11.342 25.333,25.333l0,134.894c0,51.421 -41.685,93.106 -93.107,93.106l-0.44,0c-51.421,0.007 -93.112,-41.672 -93.12,-93.093l0,-147c0.001,-7.312 5.928,-13.24 13.24,-13.24Z" style="fill:#5059c9;fill-rule:nonzero;"/><circle cx="500" cy="113.333" r="60" style="fill:#5059c9;"/><circle cx="313.333" cy="86.667" r="86.667" style="fill:#7b83eb;"/><path d="M428.893,200l-244.453,-0c-13.825,0.342 -24.761,11.815 -24.44,25.64l-0,153.853c-1.931,82.963 63.706,151.81 146.667,153.84c82.96,-2.03 148.597,-70.877 146.666,-153.84l0,-153.853c0.321,-13.825 -10.615,-25.298 -24.44,-25.64Z" style="fill:#7b83eb;fill-rule:nonzero;"/><path d="M320,200l-0,215.6c-0.066,9.887 -6.058,18.769 -15.2,22.533c-2.911,1.231 -6.04,1.866 -9.2,1.867l-123.867,-0c-1.733,-4.4 -3.333,-8.8 -4.667,-13.333c-4.667,-15.3 -7.048,-31.205 -7.066,-47.2l-0,-153.867c-0.321,-13.803 10.597,-25.258 24.4,-25.6l135.6,-0Z" style="fill-opacity:0.1;fill-rule:nonzero;"/><path d="M306.667,200l-0,228.933c-0.001,3.161 -0.635,6.289 -1.867,9.2c-3.764,9.142 -12.647,15.134 -22.533,15.2l-104.267,0c-2.267,-4.4 -4.4,-8.8 -6.267,-13.333c-1.867,-4.533 -3.333,-8.8 -4.667,-13.333c-4.667,-15.3 -7.048,-31.205 -7.066,-47.2l-0,-153.867c-0.321,-13.803 10.597,-25.258 24.4,-25.6l122.267,-0Z" style="fill-opacity:0.2;fill-rule:nonzero;"/><path d="M306.667,200l-0,202.267c-0.102,13.433 -10.967,24.298 -24.4,24.4l-115.2,-0c-4.668,-15.3 -7.049,-31.205 -7.067,-47.2l-0,-153.867c-0.321,-13.803 10.598,-25.258 24.4,-25.6l122.267,-0Z" style="fill-opacity:0.2;fill-rule:nonzero;"/><path d="M293.333,200l0,202.267c-0.101,13.433 -10.966,24.298 -24.4,24.4l-101.866,-0c-4.668,-15.3 -7.049,-31.205 -7.067,-47.2l-0,-153.867c-0.321,-13.803 10.598,-25.258 24.4,-25.6l108.933,-0Z" style="fill-opacity:0.2;fill-rule:nonzero;"/><path d="M320,131.067l-0,42c-2.267,0.133 -4.4,0.266 -6.667,0.266c-2.267,0 -4.4,-0.133 -6.667,-0.266c-4.5,-0.299 -8.964,-1.013 -13.333,-2.134c-27,-6.394 -49.306,-25.329 -60,-50.933c-1.84,-4.3 -3.268,-8.764 -4.267,-13.333l66.534,-0c13.454,0.051 24.349,10.945 24.4,24.4Z" style="fill-opacity:0.1;fill-rule:nonzero;"/><path d="M306.667,144.4l-0,28.667c-4.501,-0.299 -8.964,-1.013 -13.334,-2.134c-27,-6.394 -49.306,-25.329 -60,-50.933l48.934,0c13.454,0.051 24.348,10.946 24.4,24.4Z" style="fill-opacity:0.2;fill-rule:nonzero;"/><path d="M306.667,144.4l-0,28.667c-4.501,-0.299 -8.964,-1.013 -13.334,-2.134c-27,-6.394 -49.306,-25.329 -60,-50.933l48.934,0c13.454,0.051 24.348,10.946 24.4,24.4Z" style="fill-opacity:0.2;fill-rule:nonzero;"/><path d="M293.333,144.4l0,26.533c-27,-6.394 -49.306,-25.329 -60,-50.933l35.6,-0c13.455,0.051 24.349,10.946 24.4,24.4Z" style="fill-opacity:0.2;fill-rule:nonzero;"/><path d="M24.44,120l244.453,-0c13.498,-0 24.44,10.942 24.44,24.44l-0,244.453c-0,13.498 -10.942,24.44 -24.44,24.44l-244.453,-0c-13.498,-0 -24.44,-10.942 -24.44,-24.44l-0,-244.453c-0,-13.498 10.942,-24.44 24.44,-24.44Z" style="fill:url(#_Linear1);fill-rule:nonzero;"/><path d="M210.987,213.04l-48.867,-0l-0,133.067l-31.133,-0l-0,-133.067l-48.64,-0l-0,-25.813l128.64,-0l-0,25.813Z" style="fill:#fff;fill-rule:nonzero;"/><defs><linearGradient id="_Linear1" x1="0" y1="0" x2="1" y2="0" gradientUnits="userSpaceOnUse" gradientTransform="matrix(191.417,331.527,-331.527,191.417,50.9579,-165.764)"><stop offset="0" style="stop-color:#5a62c3;stop-opacity:1"/><stop offset="0.5" style="stop-color:#4d55bd;stop-opacity:1"/><stop offset="1" style="stop-color:#3940ab;stop-opacity:1"/></linearGradient></defs></svg>