<?xml version="1.0" encoding="utf-8"?>
<!-- Generator: Adobe Illustrator 23.0.1, SVG Export Plug-In . SVG Version: 6.00 Build 0)  -->
<!DOCTYPE svg PUBLIC "-//W3C//DTD SVG 1.1//EN" "http://www.w3.org/Graphics/SVG/1.1/DTD/svg11.dtd" [
	<!ENTITY ns_extend "http://ns.adobe.com/Extensibility/1.0/">
	<!ENTITY ns_ai "http://ns.adobe.com/AdobeIllustrator/10.0/">
	<!ENTITY ns_graphs "http://ns.adobe.com/Graphs/1.0/">
	<!ENTITY ns_vars "http://ns.adobe.com/Variables/1.0/">
	<!ENTITY ns_imrep "http://ns.adobe.com/ImageReplacement/1.0/">
	<!ENTITY ns_sfw "http://ns.adobe.com/SaveForWeb/1.0/">
	<!ENTITY ns_custom "http://ns.adobe.com/GenericCustomNamespace/1.0/">
	<!ENTITY ns_adobe_xpath "http://ns.adobe.com/XPath/1.0/">
]>
<svg version="1.1" id="Layer_1" xmlns:x="&ns_extend;" xmlns:i="&ns_ai;" xmlns:graph="&ns_graphs;"
	 xmlns="http://www.w3.org/2000/svg" xmlns:xlink="http://www.w3.org/1999/xlink" x="0px" y="0px" viewBox="0 0 240 234"
	 enable-background="new 0 0 240 234" xml:space="preserve">

<path fill="#FA0F00" d="M42.5,0h155C221,0,240,19,240,42.5v149c0,23.5-19,42.5-42.5,42.5h-155C19,234,0,215,0,191.5v-149
	C0,19,19,0,42.5,0z"/>
<path id="_256" fill="#FFFFFF" d="M186.6,176h-28.5c-2.5,0-4.8-1.4-5.8-3.8l-30.9-72.4c-0.2-0.7-1-1.1-1.7-0.9
	c-0.4,0.1-0.8,0.5-0.9,0.9l-19.3,45.9c-0.4,0.8,0,1.8,0.9,2.1c0.2,0.1,0.4,0.1,0.6,0.1h21.2c1.3,0,2.5,0.8,3,2l9.3,20.7
	c0.8,1.9-0.1,4.2-2,5c-0.5,0.2-1,0.3-1.5,0.3H53.7c-1.9,0-3.5-1.6-3.5-3.5c0-0.5,0.1-0.9,0.3-1.4L99.6,54.1c1-2.5,3.5-4.2,6.2-4.1
	h28.3c2.7,0,5.2,1.6,6.2,4.1L189.8,171c0.8,1.8-0.1,3.9-1.8,4.6C187.5,175.8,187.1,175.9,186.6,176z"/>
</svg>
