<?xml version="1.0" encoding="UTF-8" standalone="no"?><!DOCTYPE svg PUBLIC "-//W3C//DTD SVG 1.1//EN" "http://www.w3.org/Graphics/SVG/1.1/DTD/svg11.dtd"><svg width="100%" height="100%" viewBox="0 0 2154 2154" version="1.1" xmlns="http://www.w3.org/2000/svg" xmlns:xlink="http://www.w3.org/1999/xlink" xml:space="preserve" xmlns:serif="http://www.serif.com/" style="fill-rule:evenodd;clip-rule:evenodd;stroke-linejoin:round;stroke-miterlimit:2;"><circle cx="1076.66" cy="1093.08" r="994.795" style="fill:#241405;"/><path d="M0,1076.66c0,594.727 481.934,1076.66 1076.66,1076.66c594.727,0 1076.66,-481.933 1076.66,-1076.66c0,-594.726 -481.933,-1076.66 -1076.66,-1076.66c-594.726,0 -1076.66,481.934 -1076.66,1076.66Zm109.863,-1.221c0.733,-533.935 434.082,-966.308 968.018,-965.576c533.935,0.733 966.308,434.082 965.576,968.018c-0.732,533.935 -433.35,965.576 -966.797,965.576c-533.447,0 -967.041,-433.594 -966.797,-967.773l0,-0.245Z" style="fill:#ff7618;fill-rule:nonzero;"/><path d="M1748.05,1076.66c-0.078,-89.955 -51.67,-172.332 -132.568,-211.67c12.8,-30.575 19.392,-63.394 19.392,-96.541c-0,-137.146 -112.854,-250 -250,-250c-33.147,0 -65.965,6.593 -96.541,19.393c-39.323,-80.897 -121.722,-132.462 -211.67,-132.462c-89.948,-0 -172.347,51.565 -211.67,132.462c-30.575,-12.8 -63.394,-19.393 -96.541,-19.393c-137.146,0 -250,112.854 -250,250c0,33.147 6.593,65.966 19.393,96.541c-80.897,39.323 -132.462,121.722 -132.462,211.67c-0,89.948 51.565,172.347 132.462,211.67c-12.8,30.576 -19.393,63.394 -19.393,96.541c0,137.146 112.854,250 250,250c33.147,-0 65.966,-6.592 96.541,-19.392c39.323,80.897 121.722,132.462 211.67,132.462c89.948,-0 172.347,-51.565 211.67,-132.462c30.576,12.8 63.394,19.392 96.541,19.392c137.146,-0 250,-112.854 250,-250c-0,-33.147 -6.592,-65.965 -19.392,-96.541c80.898,-39.338 132.49,-121.714 132.568,-211.67Zm-231.201,-440.185c54.555,54.88 69.66,138.201 37.841,208.74c-13.854,-2.543 -27.906,-3.851 -41.992,-3.906c-110.041,-0.134 -200.55,-90.643 -200.683,-200.684c-0.056,-14.085 -1.363,-28.138 -3.907,-41.992c70.539,-31.819 153.861,-16.714 208.741,37.842Zm-240.723,899.658c-8.013,-5.886 -15.601,-12.331 -22.705,-19.287c-96.973,-96.952 -256.543,-96.952 -353.516,-0c-7.104,6.956 -14.691,13.401 -22.705,19.287c-0.989,-7.773 -1.478,-15.602 -1.465,-23.438c-0.133,-128.925 -106.181,-234.973 -235.107,-235.107c-7.836,0.014 -15.664,-0.476 -23.438,-1.465c5.886,-8.013 12.331,-15.601 19.288,-22.705c96.952,-96.973 96.952,-256.543 -0,-353.516c-6.957,-7.104 -13.402,-14.691 -19.288,-22.705c7.774,-0.989 15.602,-1.478 23.438,-1.465c128.926,-0.133 234.974,-106.181 235.107,-235.107c-0.013,-7.836 0.476,-15.664 1.465,-23.438c8.014,5.886 15.601,12.331 22.705,19.288c96.973,96.952 256.543,96.952 353.516,-0c7.104,-6.957 14.692,-13.402 22.705,-19.288c0.989,7.774 1.479,15.602 1.465,23.438c0.134,128.926 106.182,234.974 235.107,235.107c7.836,-0.013 15.665,0.476 23.438,1.465c-5.886,8.014 -12.331,15.601 -19.287,22.705c-96.952,96.973 -96.952,256.543 -0,353.516c6.956,7.104 13.401,14.692 19.287,22.705c-7.773,0.989 -15.602,1.479 -23.438,1.465c-128.925,0.134 -234.973,106.182 -235.107,235.107c0.014,7.836 -0.476,15.665 -1.465,23.438Zm-199.463,-1096.44c76.961,0.006 147.431,44.228 180.908,113.526c-17.959,10.69 -34.524,23.565 -49.316,38.33c-72.233,72.093 -190.951,72.093 -263.184,-0c-14.792,-14.765 -31.357,-27.64 -49.316,-38.33c33.477,-69.298 103.947,-113.52 180.908,-113.526Zm-440.185,196.778c54.88,-54.556 138.201,-69.661 208.74,-37.842c-2.543,13.854 -3.851,27.907 -3.906,41.992c-0.134,110.041 -90.643,200.55 -200.684,200.684c-14.085,0.055 -28.138,1.363 -41.992,3.906c-31.819,-70.539 -16.714,-153.86 37.842,-208.74Zm-196.778,440.185c0.006,-76.961 44.228,-147.431 113.526,-180.908c10.69,17.959 23.565,34.524 38.33,49.316c72.093,72.233 72.093,190.951 -0,263.184c-14.765,14.792 -27.64,31.357 -38.33,49.316c-69.298,-33.477 -113.52,-103.947 -113.526,-180.908Zm196.778,440.186c-54.556,-54.88 -69.661,-138.202 -37.842,-208.741c13.854,2.544 27.907,3.851 41.992,3.907c110.041,0.133 200.55,90.642 200.684,200.683c0.055,14.086 1.363,28.138 3.906,41.992c-70.539,31.819 -153.86,16.714 -208.74,-37.841Zm440.185,196.777c-76.961,-0.005 -147.431,-44.227 -180.908,-113.525c17.959,-10.69 34.524,-23.565 49.316,-38.33c72.233,-72.093 190.951,-72.093 263.184,-0c14.792,14.765 31.357,27.64 49.316,38.33c-33.477,69.298 -103.947,113.52 -180.908,113.525Zm440.186,-196.777c-54.88,54.555 -138.202,69.66 -208.741,37.841c2.544,-13.854 3.851,-27.906 3.907,-41.992c0.133,-110.041 90.642,-200.55 200.683,-200.683c14.086,-0.056 28.138,-1.363 41.992,-3.907c31.819,70.539 16.714,153.861 -37.841,208.741Zm83.252,-259.278c-10.69,-17.959 -23.565,-34.524 -38.33,-49.316c-72.093,-72.233 -72.093,-190.951 -0,-263.184c14.765,-14.792 27.64,-31.357 38.33,-49.316c69.287,33.486 113.496,103.954 113.496,180.908c0,76.955 -44.209,147.423 -113.496,180.908Z" style="fill:#ffe0cb;fill-rule:nonzero;"/></svg>