<?xml version="1.0" encoding="UTF-8" standalone="no"?><!DOCTYPE svg PUBLIC "-//W3C//DTD SVG 1.1//EN" "http://www.w3.org/Graphics/SVG/1.1/DTD/svg11.dtd"><svg width="100%" height="100%" viewBox="0 0 800 800" version="1.1" xmlns="http://www.w3.org/2000/svg" xmlns:xlink="http://www.w3.org/1999/xlink" xml:space="preserve" xmlns:serif="http://www.serif.com/" style="fill-rule:evenodd;clip-rule:evenodd;"><g id="SVGRepo_iconCarrier"><rect x="0" y="0" width="800" height="800" style="fill:none;stroke:#fff;stroke-width:1px;"/><g><path d="M640,520c-52,0 -96,32 -112,80l-168,0c0,-28 -8,-52 -20,-72l284,-292c12,-0 24,4 36,4c56,0 100,-44 100,-100c0,-56 -44,-100 -100,-100c-56,0 -100,44 -100,100c0,12 4,28 8,40l-280,288c-24,-20 -56,-28 -88,-28l-0,-168c48,-16 80,-60 80,-112c0,-68 -52,-120 -120,-120c-68,0 -120,52 -120,120c0,52 32,96 80,112l0,188c-48,28 -80,80 -80,136c0,88 72,160 160,160c60,0 112,-32 136,-80l188,0c16,44 60,80 112,80c64,0 120,-52 120,-120c4,-64 -52,-116 -116,-116Z" style="fill:#fff;fill-rule:nonzero;stroke:#fff;stroke-width:1px;"/></g></g></svg>